# xmcd
#
# Track frame offsets:
#	150
#	6705
#	18618
#	37788
#	53555
#	64235
#	78840
#	91725
#	105615
#	118693
#	133605
#	149730
#	156315
#
# Disc length: 2137 seconds
#
# Revision: 0
# Processed by: cddbd v1.4PL0 Copyright (c) Steve Scherf et al.
# Submitted via: EasyCDDAExtractor 4.5.0.2
#
DISCID=ac08570d
DTITLE=Gatlin Brothers - Christmas With
DYEAR=1994
DGENRE=Christmas
TTITLE0=Joy to the world
TTITLE1=Winter wonderland
TTITLE2=White Christmas
TTITLE3=Sweet baby Jesus
TTITLE4=Bring a torch Janette Isabella
TTITLE5=Do you hear what I hear
TTITLE6=O holy night
TTITLE7=Silver bells
TTITLE8=What child is this
TTITLE9=Little drummer boy
TTITLE10=Silent night
TTITLE11=Joy to the world
TTITLE12=Christmas all year round
EXTD=
EXTT0=
EXTT1=
EXTT2=
EXTT3=
EXTT4=
EXTT5=
EXTT6=
EXTT7=
EXTT8=
EXTT9=
EXTT10=
EXTT11=
EXTT12=
PLAYORDER=
